<?xml version="1.0" encoding="UTF-8"?><svg id="Layer_1" xmlns="http://www.w3.org/2000/svg" viewBox="0 0 261.8 33.17"><path d="m35.23,22.18c2.59-.51,4.64-1.7,6.14-3.58,1.5-1.87,2.26-4.07,2.26-6.6,0-1.76-.34-3.33-1.03-4.7-.69-1.38-1.58-2.48-2.66-3.31s-2.38-1.51-3.86-2.04c-1.49-.53-2.96-.9-4.42-1.1-1.46-.21-2.97-.31-4.54-.31H6.48L0,8.88h27.94c3.65,0,5.47,1.25,5.47,3.74,0,1.09-.52,1.96-1.56,2.62s-2.34.98-3.91.98H0v16.42h9.94v-8.5h15.26l7.15,8.5h13.3l-5.9-6.24c-2.11-2.14-3.62-3.55-4.51-4.22h0Z" fill="#231f20" stroke-width="0"/><path d="m90.53,18.62c0,2.3-.74,3.93-2.21,4.87s-4.08,1.42-7.82,1.42c-3.42,0-6.01-.21-7.75-.62-1.74-.42-2.93-1.05-3.55-1.9s-.94-2.1-.94-3.77V.53h-9.89v18.1c0,4.9,1.78,8.54,5.33,10.94,3.55,2.4,9.15,3.6,16.8,3.6,13.34,0,20.02-4.85,20.02-14.54V.53h-9.98v18.1h-.01Z" fill="#231f20" stroke-width="0"/><path d="m144.67,19.39L124.99,1.73c-1.28-1.15-2.61-1.73-3.98-1.73-1.54,0-2.82.5-3.86,1.49s-1.56,2.5-1.56,4.51v26.64h9.02V13.78l19.68,17.66c1.22,1.15,2.54,1.73,3.98,1.73,1.57,0,2.87-.5,3.91-1.51,1.04-1.01,1.56-2.52,1.56-4.54V.53h-9.07v18.86h0Z" fill="#231f20" stroke-width="0"/><polygon points="179.18 20.02 198.91 20.02 204.62 12.72 179.18 12.72 179.18 8.88 199.97 8.88 206.4 .53 169.2 .53 169.2 32.64 200.11 32.64 206.49 24.38 179.18 24.38 179.18 20.02" fill="#231f20" stroke-width="0"/><path d="m229.94,15.24c-1.04-.66-1.56-1.53-1.56-2.62,0-2.5,1.82-3.74,5.47-3.74h27.94l-6.48-8.35h-20.64c-1.57,0-3.08.1-4.54.31-1.46.21-2.93.58-4.42,1.1-1.49.53-2.78,1.21-3.86,2.04-1.09.83-1.98,1.94-2.66,3.31-.69,1.38-1.03,2.94-1.03,4.7,0,2.53.75,4.73,2.26,6.6s3.55,3.06,6.14,3.58c-.9.67-2.4,2.08-4.51,4.22l-5.9,6.24h13.3l7.15-8.5h15.26v8.5h9.94v-16.42h-27.94c-1.57,0-2.87-.33-3.91-.98h-.01Z" fill="#231f20" stroke-width="0"/></svg>